<mxfile host="app.diagrams.net" modified="2023-06-04T23:26:24.181Z" agent="Mozilla/5.0 (X11; Linux x86_64; rv:108.0) Gecko/20100101 Firefox/108.0" etag="PMr2WjDjpv5N7mwUQvOC" version="21.3.6" type="device">
  <diagram name="Page-1" id="gJ2lRHhhBP8KVG8pUBjs">
    <mxGraphModel dx="989" dy="471" grid="1" gridSize="10" guides="1" tooltips="1" connect="1" arrows="1" fold="1" page="1" pageScale="1" pageWidth="850" pageHeight="1100" math="0" shadow="0">
      <root>
        <mxCell id="0" />
        <mxCell id="1" parent="0" />
        <mxCell id="hdEMlbIwHD-RyxGUqy0C-1" value="Функц. возможность 5" style="swimlane;whiteSpace=wrap;" parent="1" vertex="1">
          <mxGeometry x="110" y="30" width="596.5" height="600" as="geometry" />
        </mxCell>
        <mxCell id="hdEMlbIwHD-RyxGUqy0C-2" value="" style="ellipse;shape=startState;fillColor=#a20025;strokeColor=#6F0000;fontColor=#ffffff;whiteSpace=wrap;" parent="hdEMlbIwHD-RyxGUqy0C-1" vertex="1">
          <mxGeometry x="273.04" y="22" width="30" height="30" as="geometry" />
        </mxCell>
        <mxCell id="hdEMlbIwHD-RyxGUqy0C-3" value="" style="edgeStyle=elbowEdgeStyle;elbow=horizontal;verticalAlign=bottom;endArrow=open;endSize=8;strokeColor=#2D7600;endFill=1;rounded=0;fillColor=#60a917;" parent="hdEMlbIwHD-RyxGUqy0C-1" source="hdEMlbIwHD-RyxGUqy0C-2" edge="1">
          <mxGeometry x="251.04" y="-106" as="geometry">
            <mxPoint x="288.04" y="72" as="targetPoint" />
          </mxGeometry>
        </mxCell>
        <mxCell id="hdEMlbIwHD-RyxGUqy0C-4" value="" style="edgeStyle=orthogonalEdgeStyle;rounded=0;orthogonalLoop=1;jettySize=auto;html=1;fillColor=#60a917;strokeColor=#2D7600;fontColor=#050F24;" parent="hdEMlbIwHD-RyxGUqy0C-1" source="hdEMlbIwHD-RyxGUqy0C-5" target="hdEMlbIwHD-RyxGUqy0C-11" edge="1">
          <mxGeometry relative="1" as="geometry" />
        </mxCell>
        <mxCell id="EEImhka8_G_Fq9vyyeGw-2" style="edgeStyle=orthogonalEdgeStyle;rounded=0;orthogonalLoop=1;jettySize=auto;html=1;entryX=0.5;entryY=0;entryDx=0;entryDy=0;fillColor=#60a917;strokeColor=#2D7600;" edge="1" parent="hdEMlbIwHD-RyxGUqy0C-1" source="hdEMlbIwHD-RyxGUqy0C-5" target="EEImhka8_G_Fq9vyyeGw-1">
          <mxGeometry relative="1" as="geometry" />
        </mxCell>
        <mxCell id="hdEMlbIwHD-RyxGUqy0C-5" value="Игра закончилась" style="fillColor=#60a917;strokeColor=#2D7600;fontColor=#ffffff;whiteSpace=wrap;" parent="hdEMlbIwHD-RyxGUqy0C-1" vertex="1">
          <mxGeometry x="223.04" y="74" width="130" height="50" as="geometry" />
        </mxCell>
        <mxCell id="EEImhka8_G_Fq9vyyeGw-6" style="edgeStyle=orthogonalEdgeStyle;rounded=0;orthogonalLoop=1;jettySize=auto;html=1;entryX=0.5;entryY=0;entryDx=0;entryDy=0;" edge="1" parent="hdEMlbIwHD-RyxGUqy0C-1" source="hdEMlbIwHD-RyxGUqy0C-11" target="EEImhka8_G_Fq9vyyeGw-4">
          <mxGeometry relative="1" as="geometry" />
        </mxCell>
        <mxCell id="hdEMlbIwHD-RyxGUqy0C-11" value="Победил бот" style="whiteSpace=wrap;fillColor=#60a917;strokeColor=#2D7600;fontColor=#ffffff;" parent="hdEMlbIwHD-RyxGUqy0C-1" vertex="1">
          <mxGeometry x="400" y="140" width="130" height="48" as="geometry" />
        </mxCell>
        <mxCell id="hdEMlbIwHD-RyxGUqy0C-35" value="" style="edgeStyle=orthogonalEdgeStyle;rounded=0;orthogonalLoop=1;jettySize=auto;html=1;fillColor=#60a917;strokeColor=#2D7600;" parent="hdEMlbIwHD-RyxGUqy0C-1" source="hdEMlbIwHD-RyxGUqy0C-32" target="hdEMlbIwHD-RyxGUqy0C-33" edge="1">
          <mxGeometry relative="1" as="geometry" />
        </mxCell>
        <mxCell id="hdEMlbIwHD-RyxGUqy0C-32" value="Программа закрывается" style="whiteSpace=wrap;fillColor=#60a917;strokeColor=#2D7600;fontColor=#ffffff;" parent="hdEMlbIwHD-RyxGUqy0C-1" vertex="1">
          <mxGeometry x="240.26999999999998" y="340" width="97.5" height="50" as="geometry" />
        </mxCell>
        <mxCell id="hdEMlbIwHD-RyxGUqy0C-33" value="" style="ellipse;shape=endState;fillColor=#a20025;strokeColor=#6F0000;fontColor=#ffffff;whiteSpace=wrap;" parent="hdEMlbIwHD-RyxGUqy0C-1" vertex="1">
          <mxGeometry x="274.02" y="450" width="30" height="30" as="geometry" />
        </mxCell>
        <mxCell id="EEImhka8_G_Fq9vyyeGw-8" style="edgeStyle=orthogonalEdgeStyle;rounded=0;orthogonalLoop=1;jettySize=auto;html=1;entryX=0.5;entryY=0;entryDx=0;entryDy=0;" edge="1" parent="hdEMlbIwHD-RyxGUqy0C-1">
          <mxGeometry relative="1" as="geometry">
            <mxPoint x="288.0952380952381" y="188" as="sourcePoint" />
            <mxPoint x="289.05999999999995" y="214" as="targetPoint" />
          </mxGeometry>
        </mxCell>
        <mxCell id="EEImhka8_G_Fq9vyyeGw-1" value="Победил игрок" style="whiteSpace=wrap;fillColor=#60a917;strokeColor=#2D7600;fontColor=#ffffff;" vertex="1" parent="hdEMlbIwHD-RyxGUqy0C-1">
          <mxGeometry x="221.07999999999996" y="140" width="130" height="48" as="geometry" />
        </mxCell>
        <mxCell id="EEImhka8_G_Fq9vyyeGw-9" style="edgeStyle=orthogonalEdgeStyle;rounded=0;orthogonalLoop=1;jettySize=auto;html=1;entryX=1;entryY=0.5;entryDx=0;entryDy=0;" edge="1" parent="hdEMlbIwHD-RyxGUqy0C-1">
          <mxGeometry relative="1" as="geometry">
            <mxPoint x="401" y="254" as="sourcePoint" />
            <mxPoint x="356" y="254" as="targetPoint" />
          </mxGeometry>
        </mxCell>
        <mxCell id="EEImhka8_G_Fq9vyyeGw-4" value="Отрисовать путь до финиша" style="whiteSpace=wrap;fillColor=#60a917;strokeColor=#2D7600;fontColor=#ffffff;" vertex="1" parent="hdEMlbIwHD-RyxGUqy0C-1">
          <mxGeometry x="399.99999999999994" y="230" width="130" height="48" as="geometry" />
        </mxCell>
        <mxCell id="EEImhka8_G_Fq9vyyeGw-12" value="да" style="edgeStyle=orthogonalEdgeStyle;rounded=0;orthogonalLoop=1;jettySize=auto;html=1;entryX=0.5;entryY=0;entryDx=0;entryDy=0;" edge="1" parent="hdEMlbIwHD-RyxGUqy0C-1" source="EEImhka8_G_Fq9vyyeGw-7" target="hdEMlbIwHD-RyxGUqy0C-32">
          <mxGeometry relative="1" as="geometry" />
        </mxCell>
        <mxCell id="EEImhka8_G_Fq9vyyeGw-18" value="нет" style="edgeStyle=orthogonalEdgeStyle;rounded=0;orthogonalLoop=1;jettySize=auto;html=1;entryX=0.5;entryY=1;entryDx=0;entryDy=0;" edge="1" parent="hdEMlbIwHD-RyxGUqy0C-1" source="EEImhka8_G_Fq9vyyeGw-7" target="EEImhka8_G_Fq9vyyeGw-13">
          <mxGeometry x="-0.6664" relative="1" as="geometry">
            <mxPoint as="offset" />
          </mxGeometry>
        </mxCell>
        <mxCell id="EEImhka8_G_Fq9vyyeGw-7" value="Игрок хочет выйти?" style="rhombus;whiteSpace=wrap;html=1;fillColor=#60a917;fontColor=#ffffff;strokeColor=#2D7600;" vertex="1" parent="hdEMlbIwHD-RyxGUqy0C-1">
          <mxGeometry x="223.04" y="214" width="131.96" height="80" as="geometry" />
        </mxCell>
        <mxCell id="EEImhka8_G_Fq9vyyeGw-19" style="edgeStyle=orthogonalEdgeStyle;rounded=0;orthogonalLoop=1;jettySize=auto;html=1;entryX=0;entryY=0.5;entryDx=0;entryDy=0;" edge="1" parent="hdEMlbIwHD-RyxGUqy0C-1" source="EEImhka8_G_Fq9vyyeGw-13" target="hdEMlbIwHD-RyxGUqy0C-5">
          <mxGeometry relative="1" as="geometry" />
        </mxCell>
        <mxCell id="EEImhka8_G_Fq9vyyeGw-13" value="Начинается новая игра" style="fillColor=#60a917;strokeColor=#2D7600;fontColor=#ffffff;whiteSpace=wrap;" vertex="1" parent="hdEMlbIwHD-RyxGUqy0C-1">
          <mxGeometry x="29.99999999999997" y="74" width="130" height="50" as="geometry" />
        </mxCell>
      </root>
    </mxGraphModel>
  </diagram>
</mxfile>
